<mxfile host="app.diagrams.net" modified="2024-04-26T19:51:20.642Z" agent="Mozilla/5.0 (Macintosh; Intel Mac OS X 10_15_7) AppleWebKit/537.36 (KHTML, like Gecko) Chrome/124.0.0.0 Safari/537.36" etag="c_B48lC2AX9at8pimfzF" version="24.3.1" type="device">
  <diagram name="Page-1" id="8iywS-ldHSZ7-8yNUA9h">
    <mxGraphModel dx="1434" dy="786" grid="1" gridSize="10" guides="1" tooltips="1" connect="1" arrows="1" fold="1" page="1" pageScale="1" pageWidth="850" pageHeight="1100" math="0" shadow="0">
      <root>
        <mxCell id="0" />
        <mxCell id="1" parent="0" />
        <mxCell id="o-K2sw88PMrg2sIDaBuH-14" value="" style="edgeStyle=orthogonalEdgeStyle;rounded=0;orthogonalLoop=1;jettySize=auto;html=1;" edge="1" parent="1" source="o-K2sw88PMrg2sIDaBuH-1" target="o-K2sw88PMrg2sIDaBuH-3">
          <mxGeometry relative="1" as="geometry" />
        </mxCell>
        <mxCell id="o-K2sw88PMrg2sIDaBuH-1" value="" style="html=1;verticalLabelPosition=bottom;align=center;labelBackgroundColor=#ffffff;verticalAlign=top;strokeWidth=2;strokeColor=#0080F0;shadow=0;dashed=0;shape=mxgraph.ios7.icons.user;" vertex="1" parent="1">
          <mxGeometry x="380" y="100" width="30" height="30" as="geometry" />
        </mxCell>
        <mxCell id="o-K2sw88PMrg2sIDaBuH-13" value="" style="edgeStyle=orthogonalEdgeStyle;rounded=0;orthogonalLoop=1;jettySize=auto;html=1;" edge="1" parent="1" source="o-K2sw88PMrg2sIDaBuH-3" target="o-K2sw88PMrg2sIDaBuH-4">
          <mxGeometry relative="1" as="geometry" />
        </mxCell>
        <mxCell id="o-K2sw88PMrg2sIDaBuH-3" value="" style="outlineConnect=0;dashed=0;verticalLabelPosition=bottom;verticalAlign=top;align=center;html=1;shape=mxgraph.aws3.application_load_balancer;fillColor=#F58536;gradientColor=none;" vertex="1" parent="1">
          <mxGeometry x="340" y="170" width="110" height="110" as="geometry" />
        </mxCell>
        <mxCell id="o-K2sw88PMrg2sIDaBuH-18" value="" style="edgeStyle=orthogonalEdgeStyle;rounded=0;orthogonalLoop=1;jettySize=auto;html=1;" edge="1" parent="1" source="o-K2sw88PMrg2sIDaBuH-4" target="o-K2sw88PMrg2sIDaBuH-8">
          <mxGeometry relative="1" as="geometry" />
        </mxCell>
        <mxCell id="o-K2sw88PMrg2sIDaBuH-4" value="API Service" style="rounded=0;whiteSpace=wrap;html=1;" vertex="1" parent="1">
          <mxGeometry x="335" y="361.5" width="120" height="60" as="geometry" />
        </mxCell>
        <mxCell id="o-K2sw88PMrg2sIDaBuH-5" value="Identity &amp;amp; Access Management&lt;div&gt;&lt;br&gt;&lt;/div&gt;" style="sketch=0;outlineConnect=0;fontColor=#232F3E;gradientColor=none;fillColor=#DD344C;strokeColor=none;dashed=0;verticalLabelPosition=bottom;verticalAlign=top;align=center;html=1;fontSize=12;fontStyle=0;aspect=fixed;pointerEvents=1;shape=mxgraph.aws4.access_analyzer;" vertex="1" parent="1">
          <mxGeometry x="140" y="353" width="78" height="77" as="geometry" />
        </mxCell>
        <mxCell id="o-K2sw88PMrg2sIDaBuH-17" value="" style="edgeStyle=orthogonalEdgeStyle;rounded=0;orthogonalLoop=1;jettySize=auto;html=1;exitX=0.5;exitY=1;exitDx=0;exitDy=0;entryX=0.5;entryY=0;entryDx=0;entryDy=0;" edge="1" parent="1" source="o-K2sw88PMrg2sIDaBuH-4" target="o-K2sw88PMrg2sIDaBuH-7">
          <mxGeometry relative="1" as="geometry">
            <mxPoint x="440" y="450" as="targetPoint" />
          </mxGeometry>
        </mxCell>
        <mxCell id="o-K2sw88PMrg2sIDaBuH-7" value="" style="rounded=0;whiteSpace=wrap;html=1;" vertex="1" parent="1">
          <mxGeometry x="275" y="490" width="240" height="180" as="geometry" />
        </mxCell>
        <mxCell id="o-K2sw88PMrg2sIDaBuH-8" value="" style="rounded=0;whiteSpace=wrap;html=1;align=left;" vertex="1" parent="1">
          <mxGeometry x="570" y="234.75" width="250" height="313.5" as="geometry" />
        </mxCell>
        <mxCell id="o-K2sw88PMrg2sIDaBuH-10" value="&lt;div&gt;&lt;br&gt;&lt;/div&gt;Metadata DB" style="strokeWidth=2;html=1;shape=mxgraph.flowchart.database;whiteSpace=wrap;" vertex="1" parent="1">
          <mxGeometry x="365" y="580" width="60" height="70" as="geometry" />
        </mxCell>
        <mxCell id="o-K2sw88PMrg2sIDaBuH-12" value="" style="edgeStyle=orthogonalEdgeStyle;rounded=0;orthogonalLoop=1;jettySize=auto;html=1;" edge="1" parent="1" source="o-K2sw88PMrg2sIDaBuH-11" target="o-K2sw88PMrg2sIDaBuH-10">
          <mxGeometry relative="1" as="geometry" />
        </mxCell>
        <mxCell id="o-K2sw88PMrg2sIDaBuH-11" value="Metadata Service" style="rounded=0;whiteSpace=wrap;html=1;" vertex="1" parent="1">
          <mxGeometry x="305" y="520" width="180" height="30" as="geometry" />
        </mxCell>
        <mxCell id="o-K2sw88PMrg2sIDaBuH-15" value="" style="endArrow=classic;html=1;rounded=0;exitX=0;exitY=0.5;exitDx=0;exitDy=0;" edge="1" parent="1" source="o-K2sw88PMrg2sIDaBuH-4" target="o-K2sw88PMrg2sIDaBuH-5">
          <mxGeometry width="50" height="50" relative="1" as="geometry">
            <mxPoint x="285" y="390" as="sourcePoint" />
            <mxPoint x="335" y="340" as="targetPoint" />
          </mxGeometry>
        </mxCell>
        <mxCell id="o-K2sw88PMrg2sIDaBuH-22" value="" style="rounded=0;whiteSpace=wrap;html=1;" vertex="1" parent="1">
          <mxGeometry x="582.5" y="451.75" width="225" height="80" as="geometry" />
        </mxCell>
        <mxCell id="o-K2sw88PMrg2sIDaBuH-19" value="Secondary" style="strokeWidth=2;html=1;shape=mxgraph.flowchart.database;whiteSpace=wrap;" vertex="1" parent="1">
          <mxGeometry x="737.5" y="461.75" width="60" height="60" as="geometry" />
        </mxCell>
        <mxCell id="o-K2sw88PMrg2sIDaBuH-21" value="" style="edgeStyle=orthogonalEdgeStyle;rounded=0;orthogonalLoop=1;jettySize=auto;html=1;" edge="1" parent="1" source="o-K2sw88PMrg2sIDaBuH-20" target="o-K2sw88PMrg2sIDaBuH-19">
          <mxGeometry relative="1" as="geometry" />
        </mxCell>
        <mxCell id="o-K2sw88PMrg2sIDaBuH-20" value="Data Store Service" style="rounded=0;whiteSpace=wrap;html=1;" vertex="1" parent="1">
          <mxGeometry x="587.5" y="463.25" width="90" height="57" as="geometry" />
        </mxCell>
        <mxCell id="o-K2sw88PMrg2sIDaBuH-23" value="" style="rounded=0;whiteSpace=wrap;html=1;" vertex="1" parent="1">
          <mxGeometry x="582.5" y="351.75" width="225" height="80" as="geometry" />
        </mxCell>
        <mxCell id="o-K2sw88PMrg2sIDaBuH-24" value="Primary" style="strokeWidth=2;html=1;shape=mxgraph.flowchart.database;whiteSpace=wrap;" vertex="1" parent="1">
          <mxGeometry x="737.5" y="361.75" width="60" height="60" as="geometry" />
        </mxCell>
        <mxCell id="o-K2sw88PMrg2sIDaBuH-25" value="" style="edgeStyle=orthogonalEdgeStyle;rounded=0;orthogonalLoop=1;jettySize=auto;html=1;" edge="1" parent="1" source="o-K2sw88PMrg2sIDaBuH-26" target="o-K2sw88PMrg2sIDaBuH-24">
          <mxGeometry relative="1" as="geometry" />
        </mxCell>
        <mxCell id="o-K2sw88PMrg2sIDaBuH-26" value="Data Store Service" style="rounded=0;whiteSpace=wrap;html=1;" vertex="1" parent="1">
          <mxGeometry x="587.5" y="363.25" width="90" height="57" as="geometry" />
        </mxCell>
        <mxCell id="o-K2sw88PMrg2sIDaBuH-27" value="" style="rounded=0;whiteSpace=wrap;html=1;" vertex="1" parent="1">
          <mxGeometry x="582.5" y="251.75" width="225" height="80" as="geometry" />
        </mxCell>
        <mxCell id="o-K2sw88PMrg2sIDaBuH-28" value="Secondary" style="strokeWidth=2;html=1;shape=mxgraph.flowchart.database;whiteSpace=wrap;" vertex="1" parent="1">
          <mxGeometry x="737.5" y="261.75" width="60" height="60" as="geometry" />
        </mxCell>
        <mxCell id="o-K2sw88PMrg2sIDaBuH-29" value="" style="edgeStyle=orthogonalEdgeStyle;rounded=0;orthogonalLoop=1;jettySize=auto;html=1;" edge="1" parent="1" source="o-K2sw88PMrg2sIDaBuH-30" target="o-K2sw88PMrg2sIDaBuH-28">
          <mxGeometry relative="1" as="geometry" />
        </mxCell>
        <mxCell id="o-K2sw88PMrg2sIDaBuH-30" value="Data Store Service" style="rounded=0;whiteSpace=wrap;html=1;" vertex="1" parent="1">
          <mxGeometry x="587.5" y="263.25" width="90" height="57" as="geometry" />
        </mxCell>
        <mxCell id="o-K2sw88PMrg2sIDaBuH-31" value="Data Store" style="text;strokeColor=none;align=center;fillColor=none;html=1;verticalAlign=middle;whiteSpace=wrap;rounded=0;" vertex="1" parent="1">
          <mxGeometry x="665" y="550" width="60" height="30" as="geometry" />
        </mxCell>
        <mxCell id="o-K2sw88PMrg2sIDaBuH-32" value="Metadata Store" style="text;strokeColor=none;align=center;fillColor=none;html=1;verticalAlign=middle;whiteSpace=wrap;rounded=0;" vertex="1" parent="1">
          <mxGeometry x="350" y="670" width="90" height="30" as="geometry" />
        </mxCell>
        <mxCell id="o-K2sw88PMrg2sIDaBuH-33" value="" style="endArrow=classic;html=1;rounded=0;exitX=0.5;exitY=0;exitDx=0;exitDy=0;entryX=0.5;entryY=1;entryDx=0;entryDy=0;" edge="1" parent="1" source="o-K2sw88PMrg2sIDaBuH-26" target="o-K2sw88PMrg2sIDaBuH-30">
          <mxGeometry width="50" height="50" relative="1" as="geometry">
            <mxPoint x="640" y="128.25" as="sourcePoint" />
            <mxPoint x="690" y="78.25" as="targetPoint" />
          </mxGeometry>
        </mxCell>
        <mxCell id="o-K2sw88PMrg2sIDaBuH-34" value="" style="endArrow=classic;html=1;rounded=0;exitX=0.5;exitY=1;exitDx=0;exitDy=0;entryX=0.5;entryY=0;entryDx=0;entryDy=0;" edge="1" parent="1" source="o-K2sw88PMrg2sIDaBuH-26" target="o-K2sw88PMrg2sIDaBuH-20">
          <mxGeometry width="50" height="50" relative="1" as="geometry">
            <mxPoint x="643" y="373.25" as="sourcePoint" />
            <mxPoint x="643" y="330.25" as="targetPoint" />
          </mxGeometry>
        </mxCell>
      </root>
    </mxGraphModel>
  </diagram>
</mxfile>
